<?xml version="1.0" encoding="UTF-8" standalone="no"?>
<!DOCTYPE svg PUBLIC "-//W3C//DTD SVG 1.1//EN" "http://www.w3.org/Graphics/SVG/1.1/DTD/svg11.dtd">
<svg width="100%" height="100%" viewBox="0 0 400 400" version="1.1" xmlns="http://www.w3.org/2000/svg" xmlns:xlink="http://www.w3.org/1999/xlink" xml:space="preserve" xmlns:serif="http://www.serif.com/" style="fill-rule:evenodd;clip-rule:evenodd;stroke-linejoin:round;stroke-miterlimit:2;">
    <g id="svgg">
        <path id="path0" d="M187.2,49.672C63.122,61.6 3.789,215.437 88.51,305.554L93.2,310.543L99.43,308.068C109.943,303.891 120,298.439 120,296.918C120,296.603 118.916,295.705 117.591,294.922C113.578,292.552 105.688,284.81 101.96,279.585C71.934,237.508 98.267,179.222 149.67,173.979L154.94,173.441L155.983,175.958C158.164,181.225 165.529,182.195 168.884,177.657C174.413,170.18 204.934,190.741 213.926,208C215.645,211.3 217.173,214.148 217.321,214.328C217.718,214.812 220.8,211.877 220.8,211.016C220.8,209.518 214.2,199.043 210.317,194.376C202.055,184.449 186.797,174.577 175.332,171.741C172.239,170.976 170.529,170.002 169.122,168.204C166.255,164.541 156.8,164.274 156.8,167.856C156.8,168.261 154.19,168.835 151,169.131C114.379,172.525 87.021,200.187 84.869,236L84.364,244.4L82.938,236.978C76.662,204.311 88.701,168.418 113.697,145.275C155.766,106.326 222.597,110.613 259.308,154.618L263.16,159.235L266.106,154.799C269.749,149.311 269.596,148.921 260.311,140.006C214.179,95.718 142.886,97.424 99.96,143.843C84.288,160.792 71.491,189.514 71.144,208.526C71.113,210.217 70.753,212.32 70.345,213.2C69.052,215.985 70.1,186.746 71.577,178.8C87.709,92.043 182.362,44.477 261.456,83.381L271.313,88.229L275.321,84.314C277.525,82.161 280.745,78.724 282.476,76.676L285.622,72.951L280.211,69.862C251.551,53.501 219.573,46.56 187.2,49.672M328,68.348C324.214,69.749 312.933,76.556 310.144,79.123C306.763,82.236 305.279,85.031 301.223,95.935C296.728,108.02 296.977,107.608 295.153,105.957C291.142,102.328 287.207,107.758 286.582,117.786C286.135,124.957 286.755,125.676 291.629,123.639C295.646,121.961 295.795,122.391 292.655,126.603C291.195,128.561 285.951,135.707 281.003,142.482C206.4,244.618 135.844,308.223 84.527,319.602C62.626,324.458 54.051,317.011 59.155,297.568C60.987,290.591 60.802,289.961 58.155,294.154C33.3,333.527 60.925,350.563 110.21,326.255C146.787,308.215 197.22,263.343 240.872,210C260.322,186.231 287.948,147.072 295.642,132.364L299.119,125.715L299.65,129.258C300.469,134.715 306.876,133.202 313.535,125.978C317.249,121.948 317.568,120.456 315,119.12C314.01,118.605 313.062,118.064 312.894,117.919C312.53,117.604 315.687,113.926 323.81,105.2C332.646,95.707 335.727,85.631 333.838,72.4C333.092,67.17 332.429,66.71 328,68.348M332.8,135.731C329.94,138.199 326.456,141.215 325.058,142.434L322.516,144.649L325.599,151.802C347.488,202.574 333.376,264.181 291.193,302.006C257.265,332.429 205.755,343.79 164,330.06L160.4,328.876L165.2,329.438C209.269,334.597 249.579,317.177 273.639,282.577C278.157,276.08 279.199,275.049 282,274.306C289.88,272.215 293.629,263.3 289.704,255.988C288.365,253.493 288.318,252.822 289.257,249.6C296.347,225.294 293.957,195.926 282.926,171.8C279.576,164.473 279.582,164.475 275.771,169.579C272.231,174.32 272.26,173.969 274.9,180.224C277.668,186.78 280.499,196.651 281.605,203.6C284.283,220.418 280.972,249.6 276.387,249.6C269.219,249.6 263.818,260.659 267.44,267.919C268.983,271.013 268.964,271.053 261.151,281.2C235.482,314.534 190.618,328.179 150.656,314.807L142.241,311.991L137.146,315.807C134.344,317.906 128.442,321.778 124.03,324.411C114.398,330.162 114.503,329.164 123,334.19C253.446,411.341 405.122,275.328 342.006,137.8C338.42,129.986 339.244,130.171 332.8,135.731M224.471,236.861C222.895,238.734 222.397,240.216 222.389,243.061C222.293,277.395 187.162,309.85 153.146,307.029C149.603,306.735 148.502,306.978 146.641,308.466C143.366,311.083 144.55,311.488 155.41,311.466C194.261,311.387 224.858,282.279 226.959,243.4C227.495,233.474 227.441,233.332 224.471,236.861" style="fill:url(#_Linear1);"/>
    </g>
    <defs>
        <linearGradient id="_Linear1" x1="0" y1="0" x2="1" y2="0" gradientUnits="userSpaceOnUse" gradientTransform="matrix(278.857,-264,264,278.857,55.0809,333.774)"><stop offset="0" style="stop-color:rgb(211,22,170);stop-opacity:1"/><stop offset="1" style="stop-color:rgb(68,97,234);stop-opacity:1"/></linearGradient>
    </defs>
</svg>
